# xmcd
#
# Track frame offsets:
#	150
#	13455
#	30592
#	50660
#	65067
#	81247
#	94072
#	107130
#	120882
#	144710
#	163530
#	175272
#	193045
#	206932
#	222955
#	238760
#	254277
#	263600
#
# Disc length: 3705
#
# Revision: 1
# Processed by: cddbd v1.5.1PL0 Copyright (c) Steve Scherf et al.
# Submitted via: VisiTrax 2.9.5.180 - For more info visit www.synapsa.com
# Normalized: r0:DSETVAR1
#
DISCID=0b0e7712
DTITLE=Various Artist - CDX Volume 78
DYEAR=1994
DGENRE=
TTITLE0=Deborah Allen - Break these chains
TTITLE1=Confederate Railroad - Daddy never was the cadillac kind
TTITLE2=Patty Loveless - How can I help you say goodbye
TTITLE3=Steve Wariner - It Won't be over you
TTITLE4=Kim Hill - Janie's gone fishin
TTITLE5=Ken Mellons - Lookin' in the same direction
TTITLE6=George Strait - Lovebug
TTITLE7=Austin Powers - Miss Misunderstood
TTITLE8=Conway Twitty - Sam Moore - Rainy night in Georgia
TTITLE9=John Michael Montgomery - Rope the moon
TTITLE10=Andy Childs - Simple life
TTITLE11=Pam Tillis - Spilled perfume
TTITLE12=David Ball - Thinkin' problem
TTITLE13=Kathy Mattea - Walking away a winner
TTITLE14=Toby Keith - Wish I didn't know now
TTITLE15=Suzy Bogguss - You wouldn't say that to a stranger
TTITLE16=Reddmann - Long arm of the law
TTITLE17=Marvell - Only country music
EXTD=
EXTT0=
EXTT1=
EXTT2=
EXTT3=
EXTT4=
EXTT5=
EXTT6=
EXTT7=
EXTT8=
EXTT9=
EXTT10=
EXTT11=
EXTT12=
EXTT13=
EXTT14=
EXTT15=
EXTT16=
EXTT17=
PLAYORDER=
